<!-- Generator: Adobe Illustrator 22.1.0, SVG Export Plug-In  -->
<svg version="1.1"
	 xmlns="http://www.w3.org/2000/svg" xmlns:xlink="http://www.w3.org/1999/xlink" xmlns:a="http://ns.adobe.com/AdobeSVGViewerExtensions/3.0/"
	 x="0px" y="0px" width="226.6px" height="94px" viewBox="0 0 226.6 94" style="enable-background:new 0 0 226.6 94;"
	 xml:space="preserve">
<style type="text/css">
	.st0{fill:#FFFFFF;}
	.st1{fill:#FFFFFF;stroke:#3D4548;stroke-width:0.5;stroke-linecap:round;stroke-linejoin:round;stroke-miterlimit:10;}
	.st2{fill:none;stroke:#3D4548;stroke-width:0.5;stroke-linecap:round;stroke-linejoin:round;stroke-miterlimit:10;}
	.st3{fill:none;stroke:#3D4548;stroke-width:0.5;stroke-linecap:round;stroke-miterlimit:10;}
	.st4{fill:#3D4548;}
	.st5{fill:#FFFFFF;stroke:#3D4548;stroke-width:0.5;stroke-miterlimit:10;}
	.st6{opacity:0.5;fill:#6C969E;}
	.st7{fill:none;stroke:#FFFFFF;stroke-width:0.5;stroke-miterlimit:10;}
	.st8{fill:#DEEBEE;}
	.st9{fill:none;stroke:#404850;stroke-width:0.5;stroke-linecap:round;stroke-linejoin:round;stroke-miterlimit:10;}
	.st10{clip-path:url(#SVGID_2_);fill:#404850;}
	.st11{fill:#404850;}
	.st12{fill:#FFFFFF;stroke:#404850;stroke-width:0.5;stroke-linecap:round;stroke-linejoin:round;stroke-miterlimit:10;}
	.st13{fill:none;stroke:#404850;stroke-width:0.5;stroke-miterlimit:10;}
	.st14{fill:none;stroke:#3D4548;stroke-width:0.5;stroke-miterlimit:10;}
	.st15{clip-path:url(#SVGID_4_);fill:#404850;}
</style>
<defs>
</defs>
<g>
	<g>
		<path class="st0" d="M173.9,55.5h9.5c0.4-3.1,3-5.4,6.2-5.4c1,0,1.9,0.3,2.7,0.7c0.8-2.5,3.1-4.4,5.9-4.4c3.4,0,6.2,2.8,6.2,6.2
			c0,1.1-0.3,2.1-0.8,2.9h4.5c2.4,0,4.3,1.9,4.3,4.3c0,2.4-1.9,4.3-4.3,4.3h-34.4c-2.4,0-4.3-1.9-4.3-4.3
			C169.6,57.5,171.5,55.5,173.9,55.5z"/>
		<polygon class="st0" points="68.8,63.8 56.4,63.8 57.4,26 67.9,26 		"/>
		<g>
			<polygon class="st1" points="198.8,75.3 206.7,69.5 214.5,75.3 			"/>
			<rect x="198.8" y="75.3" class="st1" width="15.7" height="6.8"/>
			<g>
				
					<rect x="204.3" y="72.2" transform="matrix(-1.836970e-16 1 -1 -1.836970e-16 285.4036 -127.9895)" class="st2" width="4.9" height="13"/>
				<line class="st3" x1="201.5" y1="77.9" x2="208" y2="77.9"/>
				<line class="st3" x1="201.5" y1="79.5" x2="208" y2="79.5"/>
				<circle class="st4" cx="210.1" cy="77.9" r="0.5"/>
				<circle class="st4" cx="211.7" cy="77.9" r="0.5"/>
			</g>
			<polygon class="st1" points="155.9,75.3 163.7,69.5 171.6,75.3 			"/>
			<rect x="155.9" y="75.3" class="st1" width="15.7" height="6.8"/>
			<g>
				
					<rect x="161.3" y="72.2" transform="matrix(-1.836970e-16 1 -1 -1.836970e-16 242.4135 -84.9993)" class="st2" width="4.9" height="13"/>
				<line class="st3" x1="158.5" y1="77.9" x2="165" y2="77.9"/>
				<line class="st3" x1="158.5" y1="79.5" x2="165" y2="79.5"/>
				<circle class="st4" cx="167.1" cy="77.9" r="0.5"/>
				<circle class="st4" cx="168.7" cy="77.9" r="0.5"/>
			</g>
			<g>
				<path class="st5" d="M36.4,75.1c0.3-0.2,8.7-10.8,8.7-10.8L53.9,76L36.4,75.1z"/>
				<path class="st4" d="M50.3,81.4H39.6c-0.9,0-1.7-0.4-2.2-1.1l-2.4-3h19.3l-0.9,2.1C52.8,80.6,51.6,81.4,50.3,81.4z"/>
				<rect x="44.7" y="67.6" class="st4" width="0.8" height="10.5"/>
				<rect x="44.7" y="63.9" class="st4" width="0.8" height="10.5"/>
				<polygon class="st6" points="46.8,66.4 50.4,75.8 45.5,75.6 45.2,64.3 				"/>
				<line class="st7" x1="39.3" y1="79.4" x2="50.3" y2="79.4"/>
			</g>
			<g>
				<path class="st5" d="M23,75.8C23.4,75.5,34.1,62,34.1,62l11.2,14.9L23,75.8z"/>
				<path class="st4" d="M40.8,83.8H27c-1.1,0-2.2-0.5-2.9-1.4L21,78.6h24.7l-1.2,2.7C43.9,82.9,42.4,83.8,40.8,83.8z"/>
				<rect x="33.6" y="66.1" class="st4" width="1" height="13.4"/>
				<rect x="33.6" y="61.5" class="st4" width="1" height="13.4"/>
				<polygon class="st6" points="36.2,64.7 40.9,76.7 34.5,76.4 34.1,62 				"/>
				<line class="st7" x1="26.6" y1="81.2" x2="40.7" y2="81.2"/>
			</g>
			<path class="st6" d="M64.1,63.8l-1.7,4.4l4.6,2.1c0,0-16.8,0.2-16.8,0.1s6.1-6.6,6.1-6.6H64.1z"/>
			<g>
				<path class="st8" d="M52.2,82.2l-1.9-1.2V70.3l17.3,0.2l-3.3,5c0,0-6-1-12,4.9"/>
				<polygon class="st9" points="68.9,69.5 56.4,69.5 57.4,26 67.9,26 				"/>
				<g>
					<defs>
						<polygon id="SVGID_1_" points="68.9,69.5 56.4,69.5 57.4,26 67.9,26 						"/>
					</defs>
					<clipPath id="SVGID_2_">
						<use xlink:href="#SVGID_1_"  style="overflow:visible;"/>
					</clipPath>
					<polygon class="st10" points="70.2,27.8 56,41 56,32.5 70.2,19.3 					"/>
					<polygon class="st10" points="70.2,44.6 56,57.8 56,49.3 70.2,36.1 					"/>
					<polygon class="st10" points="70.2,61.4 56,74.6 56,66.1 70.2,52.9 					"/>
				</g>
				<polyline class="st9" points="50.3,81.1 50.3,70.3 75.2,70.3 75.2,81.8 				"/>
				<path class="st9" d="M52.2,82.2v-1.9c0,0,4.6-4.9,10.5-4.9s10.6,4.9,10.6,4.9l-0.1,4"/>
				<polyline class="st9" points="62.5,84.8 62.5,80.4 53.3,80.4 53.3,82.8 				"/>
				<polyline class="st9" points="72.1,83.8 72.1,80.4 62.9,80.4 62.9,84.8 				"/>
				<line class="st9" x1="51.8" y1="72.3" x2="73.6" y2="72.3"/>
				<rect x="68.4" y="72.3" class="st11" width="1.1" height="0.9"/>
				<rect x="58.5" y="72.3" class="st11" width="1.1" height="0.9"/>
				<rect x="53.5" y="72.3" class="st11" width="1.1" height="0.9"/>
				<path class="st11" d="M55.7,77.8c0-0.2,14.2,0,14.2,0s-3.3-2.3-7.2-2.3S55.7,77.8,55.7,77.8z"/>
				<path class="st11" d="M54.9,72.4c0,0.2-0.1,0.4-0.1,0.6c0,1.2,0.7,2.2,1.6,2.2c0.9,0,1.6-1,1.6-2.2c0-0.2,0-0.4-0.1-0.6H54.9z"
					/>
				<path class="st11" d="M67.7,72.4c0,0.2-0.1,0.4-0.1,0.6c0,1.2,0.7,2.2,1.6,2.2c0.9,0,1.6-1,1.6-2.2c0-0.2,0-0.4-0.1-0.6H67.7z"
					/>
				<path class="st11" d="M57.4,81.7c0.2-0.6,0.3-1.9-0.3-1.6C56.5,80.5,57.4,81.7,57.4,81.7z"/>
				<path class="st8" d="M90.4,83.7l-2.9,0.1l-1.7-3.3c0,0-3.9,3.9-4.3,3.9c-0.4,0-1.6-4.3-1.6-4.3l-3.1,3l0-0.5L75.5,85l-2.9,0.6
					c0,0-1.8-2.6-2.2-2.7c-0.3-0.1-2,2.7-2,2.7s-2.2-0.2-4.5-0.4c-2.6-0.8-4.2-3.8-4.2-3.8l-0.9,2.2l-1.1-0.3L56.2,82c0,0,0,0-1,0.7
					c-3-0.8-6.1-4.8-6.1-4.8l-0.7,2.7l-2.1-1.1l-0.8,1.6L44,76.8l-2.5,4.3l-1.7-1.7l-1.2,1.3L35,87.4l1.5,1c0,0-0.2,0.1,2.7-0.1
					c1.1,0,2-0.2,3.3-0.2c0.5,0-0.7,1.2-3.1,2.5c-0.7,0.4,4.5-2.1,7.6-0.4c0.6,0.3,4.2-2.8,7.3-3.3c1.1-0.2,7.5-3.7,11-1.5
					c0.1,0.1,0.8,0.2,1.5,1.1c1.2,1.6,2.2,2,4,2.9c0.5-0.3,4.5-1.6,5.3-7c1.5,2.2,6.8,6.3,8.1,5.6C86.7,86.9,90.4,83.7,90.4,83.7z"
					/>
				<rect x="56.8" y="23.6" class="st12" width="11.6" height="1.6"/>
				<rect x="57.4" y="21" class="st12" width="10.6" height="1.6"/>
				<ellipse class="st12" cx="62.7" cy="7.5" rx="4" ry="6.4"/>
				<ellipse class="st12" cx="62.7" cy="7.5" rx="2.1" ry="6.4"/>
				<rect x="58.8" y="9.1" class="st12" width="7.8" height="11.1"/>
				<circle class="st12" cx="62.5" cy="14.6" r="5.5"/>
				<circle class="st11" cx="62.5" cy="14.6" r="3.5"/>
				<ellipse class="st0" cx="60.4" cy="13.1" rx="0.7" ry="1.2"/>
				<ellipse class="st0" cx="59.8" cy="14.3" rx="0.5" ry="0.7"/>
				<ellipse class="st0" cx="66.9" cy="13.1" rx="0.7" ry="1.2"/>
				<ellipse class="st0" cx="66.3" cy="14.3" rx="0.5" ry="0.7"/>
				<ellipse class="st12" cx="62.7" cy="9.1" rx="1.4" ry="2.3"/>
				<line class="st12" x1="63" y1="2.6" x2="63" y2="6.6"/>
				<path class="st11" d="M80.7,84.8c-0.8-1.2-1.1-2.3-1.3-3.3c-1,0.9-1.9,1.5-2.8,2C77.4,84.3,79.1,85.1,80.7,84.8z"/>
				<path class="st9" d="M76.6,82.5c0,0,0.2,0.8,3.4-2.8c-0.1,2.7,1.2,5.6,4.6,7.7"/>
				<path class="st11" d="M91.7,89.4c-0.9-1.4-1.4-2.9-1.6-4.1c-1.2,1.1-2.4,1.9-3.4,2.5C87.7,88.8,89.8,89.7,91.7,89.4z"/>
				<path class="st9" d="M93.6,86.7c1.9,1.6,4.4,6.9,3,6c-4.1-2.8-5.8-6.2-5.6-9.6c-4.1,4.5-8,5.2-8,5.2"/>
				<path class="st11" d="M86.8,84.2c-0.7-0.8-1.1-1.6-1.4-2.3c-0.6,0.8-1.2,1.4-1.8,1.8C84.3,84.2,85.6,84.6,86.8,84.2z"/>
				<path class="st9" d="M81.4,84.4c0,0,2.3-0.8,4.3-3.9c0.2,1.7,1.2,3.4,3.1,4.6"/>
				<path class="st11" d="M83.3,83.3c0,0-0.6-0.9-0.6-1.7c0-0.2-0.3-0.3-0.4-0.2c-0.7,0.7-1.4,0.9-1.8,1l0.9,1.9L83.3,83.3z"/>
				<path class="st11" d="M90.4,83.7c0,0-0.8-0.7-1.1-1.4c-0.1-0.2-0.3-0.2-0.4,0c-0.5,0.8-1.1,1.2-1.4,1.5l1.4,1.5L90.4,83.7z"/>
				<path class="st11" d="M80.7,79.7c0-0.6,0.3-1.9,0.7-1.4C81.9,78.8,80.7,79.7,80.7,79.7z"/>
				<path class="st11" d="M79,79.7c-0.2-0.6-0.4-1.8,0.2-1.6C79.9,78.4,79,79.7,79,79.7z"/>
				<path class="st11" d="M80.1,78.7c-0.2-0.6-0.4-1.8,0.2-1.6C81,77.4,80.1,78.7,80.1,78.7z"/>
				<path class="st11" d="M86.5,80.8c0.1-0.6,0.4-1.8,0.9-1.3C87.8,80,86.5,80.8,86.5,80.8z"/>
				<path class="st11" d="M86,79.8c-0.2-0.6-0.2-1.9,0.4-1.5C87,78.6,86,79.8,86,79.8z"/>
				<path class="st11" d="M48.1,82.8c0.9-1.1,1.4-2.2,1.6-3.2c0.9,1,1.8,1.7,2.5,2.3C51.4,82.7,49.6,83.2,48.1,82.8z"/>
				<path class="st9" d="M55.3,82.6c0,0-3.1-0.9-6.1-4.8c-0.1,2.7-1.7,5.5-5.3,7.3"/>
				<path class="st11" d="M36.7,86.3c1.1-1.3,1.7-2.7,2-3.9c1.1,1.2,2.2,2.1,3.1,2.8C40.7,86.2,38.6,86.9,36.7,86.3z"/>
				<path class="st11" d="M42.1,81.6c0.8-0.7,1.3-1.5,1.6-2.2c0.5,0.8,1.1,1.5,1.6,2C44.6,81.9,43.2,82.1,42.1,81.6z"/>
				<path class="st9" d="M47.4,82.3c0,0-2.2-1.1-3.9-4.3c-0.4,1.7-1.5,3.3-3.6,4.3"/>
				<path class="st11" d="M45.6,81.1c0,0,0.6-0.8,0.8-1.6c0-0.2,0.3-0.3,0.4-0.1c0.6,0.7,1.3,1,1.7,1.2l-1,1.8L45.6,81.1z"/>
				<path class="st11" d="M38.6,80.8c0,0,0.9-0.6,1.2-1.3c0.1-0.2,0.3-0.2,0.4,0c0.4,0.9,1,1.3,1.2,1.6L40,82.5L38.6,80.8z"/>
				<path class="st11" d="M48.6,77.8c0.1-0.6-0.1-1.9-0.6-1.5S48.6,77.8,48.6,77.8z"/>
				<path class="st11" d="M50.3,77.9c0.3-0.6,0.6-1.8-0.1-1.6C49.5,76.6,50.3,77.9,50.3,77.9z"/>
				<path class="st11" d="M49.3,76.8c0.3-0.6,0.6-1.8-0.1-1.6C48.5,75.5,49.3,76.8,49.3,76.8z"/>
				<path class="st11" d="M42.7,78.3c0-0.6-0.2-1.9-0.7-1.4C41.5,77.4,42.7,78.3,42.7,78.3z"/>
				<path class="st11" d="M43.3,77.3c0.2-0.6,0.4-1.8-0.2-1.6C42.5,76,43.3,77.3,43.3,77.3z"/>
				<path class="st11" d="M48.9,86.4c0.5-0.4,1.3-1.4,0.6-1.5C48.8,84.9,48.9,86.4,48.9,86.4z"/>
				<path class="st11" d="M48.4,85.7c0.2-0.6,0.3-1.9-0.3-1.6C47.5,84.5,48.4,85.7,48.4,85.7z"/>
				<path class="st11" d="M75.1,87.3c0.9-1.1,1.4-2.2,1.6-3.2c0.9,1,1.8,1.7,2.5,2.3C78.4,87.2,76.6,87.7,75.1,87.3z"/>
				<path class="st9" d="M82.3,87.1c0,0-3.1-0.9-6.1-4.8c-0.1,2.7-1.7,5.5-5.3,7.3"/>
				<path class="st11" d="M63.7,90.8c1.1-1.3,1.7-2.7,2-3.9c1.1,1.2,2.2,2.1,3.1,2.8C67.7,90.7,65.6,91.3,63.7,90.8z"/>
				<path class="st9" d="M56.5,88.8c-1.2,1.5-1.5,5.9,2.1,4.7c4.7-1.5,6.4-5.6,6.5-9c3.6,4.8,7.5,6,7.5,6"/>
				<path class="st11" d="M69.1,86.1c0.8-0.7,1.3-1.5,1.6-2.2c0.5,0.8,1.1,1.5,1.6,2C71.6,86.4,70.2,86.6,69.1,86.1z"/>
				<path class="st9" d="M74.4,86.8c0,0-2.2-1.1-3.9-4.3c-0.4,1.7-1.5,3.3-3.6,4.3"/>
				<path class="st11" d="M72.6,85.6c0,0,0.6-0.8,0.8-1.6c0-0.2,0.3-0.3,0.4-0.1c0.6,0.7,1.3,1,1.7,1.2l-1,1.8L72.6,85.6z"/>
				<path class="st11" d="M65.6,85.2c0,0,0.9-0.6,1.2-1.3c0.1-0.2,0.3-0.2,0.4,0c0.4,0.9,1,1.3,1.2,1.6L67,87L65.6,85.2z"/>
				<path class="st11" d="M75.6,82.2c0.1-0.6-0.1-1.9-0.6-1.5S75.6,82.2,75.6,82.2z"/>
				<path class="st11" d="M77.3,82.4c0.3-0.6,0.6-1.8-0.1-1.6S77.3,82.4,77.3,82.4z"/>
				<path class="st11" d="M76.3,81.3c0.3-0.6,0.6-1.8-0.1-1.6C75.5,79.9,76.3,81.3,76.3,81.3z"/>
				<path class="st11" d="M69.7,82.7c0-0.6-0.2-1.9-0.7-1.4S69.7,82.7,69.7,82.7z"/>
				<path class="st11" d="M70.3,81.8c0.2-0.6,0.4-1.8-0.2-1.6C69.5,80.5,70.3,81.8,70.3,81.8z"/>
				<path class="st11" d="M75.9,90.9c0.5-0.4,1.3-1.4,0.6-1.5C75.8,89.4,75.9,90.9,75.9,90.9z"/>
				<path class="st11" d="M75.4,90.2c0.2-0.6,0.3-1.9-0.3-1.6C74.5,88.9,75.4,90.2,75.4,90.2z"/>
				<path class="st11" d="M84.4,86.2c0.2-0.6,0.3-1.9-0.3-1.6C83.5,84.9,84.4,86.2,84.4,86.2z"/>
				<path class="st9" d="M54.5,86.9c0,0,5-2.3,5.2-5.5c1.1,2.5,4.3,3.7,5.8,4.1"/>
				<path class="st9" d="M52.3,90.1c-7.1,2.1-5.8-2.8-12.8,0.6"/>
				<path class="st0" d="M85.2,82.8c-0.2,0-0.5,0.2-0.5,0.4c0,0.2,0.2,0.5,0.4,0.5c0.2,0,0.5-0.2,0.5-0.4
					C85.4,83.3,85.2,83.1,85.2,82.8z"/>
				<path class="st0" d="M82,82.4c-0.2,0-0.5,0.2-0.5,0.4c0,0.2,0.2,0.5,0.4,0.5c0.2,0,0.5-0.2,0.5-0.4C82.1,82.9,82,82.7,82,82.4z"
					/>
				<path class="st0" d="M78.7,82.7c-0.2,0-0.5,0.2-0.5,0.4c0,0.2,0.2,0.5,0.4,0.5c0.2,0,0.5-0.2,0.5-0.4
					C78.9,83.2,78.7,83,78.7,82.7z"/>
				<path class="st0" d="M77,85.4c-0.2,0-0.5,0.2-0.5,0.4c0,0.2,0.2,0.5,0.4,0.5c0.2,0,0.5-0.2,0.5-0.4C77.2,85.9,77,85.7,77,85.4z"
					/>
				<path class="st0" d="M89.3,87.2c-0.2,0-0.5,0.2-0.5,0.4c0,0.2,0.2,0.5,0.4,0.5c0.2,0,0.5-0.2,0.5-0.4
					C89.5,87.6,89.3,87.4,89.3,87.2z"/>
				<path class="st0" d="M89,83.1c-0.2,0-0.5,0.2-0.5,0.4c0,0.2,0.2,0.5,0.4,0.5c0.2,0,0.5-0.2,0.5-0.4C89.2,83.6,89,83.4,89,83.1z"
					/>
				<path class="st0" d="M74.2,84.9c-0.2,0-0.5,0.2-0.5,0.4c0,0.2,0.2,0.5,0.4,0.5c0.2,0,0.5-0.2,0.5-0.4
					C74.4,85.4,74.2,85.2,74.2,84.9z"/>
				<path class="st0" d="M70.8,85c-0.2,0-0.5,0.2-0.5,0.4c0,0.2,0.2,0.5,0.4,0.5c0.2,0,0.5-0.2,0.5-0.4C71,85.5,70.8,85.3,70.8,85z"
					/>
				<path class="st0" d="M67.3,84.9c-0.2,0-0.5,0.2-0.5,0.4c0,0.2,0.2,0.5,0.4,0.5c0.2,0,0.5-0.2,0.5-0.4
					C67.5,85.4,67.3,85.2,67.3,84.9z"/>
				<path class="st0" d="M66.1,88.5c-0.2,0-0.5,0.2-0.5,0.4c0,0.2,0.2,0.5,0.4,0.5c0.2,0,0.5-0.2,0.5-0.4
					C66.3,89,66.1,88.7,66.1,88.5z"/>
				<path class="st0" d="M50.3,81.2c-0.2,0-0.5,0.2-0.5,0.4s0.2,0.5,0.4,0.5c0.2,0,0.5-0.2,0.5-0.4C50.4,81.6,50.2,81.4,50.3,81.2z"
					/>
				<path class="st0" d="M47.1,80.4c-0.2,0-0.5,0.2-0.5,0.4c0,0.2,0.2,0.5,0.4,0.5c0.2,0,0.5-0.2,0.5-0.4
					C47.2,80.9,47.1,80.6,47.1,80.4z"/>
				<path class="st0" d="M43.8,80.6c-0.2,0-0.5,0.2-0.5,0.4s0.2,0.5,0.4,0.5c0.2,0,0.5-0.2,0.5-0.4C43.9,81,43.7,80.8,43.8,80.6z"/>
				<path class="st0" d="M39.3,84.1c-0.2,0-0.5,0.2-0.5,0.4c0,0.2,0.2,0.5,0.4,0.5c0.2,0,0.5-0.2,0.5-0.4
					C39.5,84.6,39.3,84.4,39.3,84.1z"/>
				<path class="st0" d="M40.1,80.6c-0.2,0-0.5,0.2-0.5,0.4c0,0.2,0.2,0.5,0.4,0.5c0.2,0,0.5-0.2,0.5-0.4C40.2,81,40,80.8,40.1,80.6
					z"/>
				<path class="st8" d="M0,84.9l2.8-0.1l1.4-3.2c0,0,4,3.5,4.3,3.4c0.4,0,1.2-4.2,1.2-4.2l3.2,2.6l0-0.5l1.2,2.3l2.8,0.3
					c0,0,1.6-2.6,1.9-2.7s2,2.4,2,2.4s2.1-0.3,4.3-0.6c2.5-0.9,3.8-3.9,3.8-3.9l1,2.1l1-0.4l1.4-1.4c0,0,0,0,1,0.6
					c2.7-1,5.4-5,5.4-5l0.9,2.6l1.9-1.2l0.8,1.5l1.3-4.2l2.7,4l1.5-1.7l1.3,1.2l3.8,6.1l2.7,1.5c0,0-3.9-0.3-6.7-0.3
					c-1,0-1.9-0.1-3.2,0c-0.5,0,0.7,1.1,3.1,2.2c0.7,0.3-4.4-1.7-7.3,0.1c-0.6,0.4-4.2-2.4-7.2-2.7c-1.1-0.1-7.4-3.1-10.5-0.6
					c-0.1,0.1-0.8,0.3-1.3,1.2c-1,1.6-2,2.1-3.6,3c-0.5-0.3-4.4-1.2-5.5-6.3C12.1,85,7.3,89.3,6,88.7C3.7,87.7,0,84.9,0,84.9z"/>
				<path class="st11" d="M9.3,85.3c0.6-1.2,0.9-2.3,1-3.2c1,0.8,1.9,1.3,2.7,1.7C12.3,84.7,10.8,85.4,9.3,85.3z"/>
				<path class="st9" d="M13,82.9c0,0-0.1,0.7-3.5-2.5C9.8,83,8.8,85.8,5.7,88"/>
				<path class="st11" d="M3.5,85.1c0.6-0.8,1-1.6,1.1-2.3c0.6,0.7,1.3,1.2,1.8,1.6C5.8,85,4.6,85.4,3.5,85.1z"/>
				<path class="st9" d="M8.6,84.9c0,0-2.2-0.6-4.3-3.4c-0.1,1.6-0.9,3.3-2.7,4.6"/>
				<path class="st11" d="M6.7,84.1c0,0,0.5-0.9,0.5-1.7c0-0.2,0.2-0.3,0.4-0.2c0.7,0.6,1.4,0.7,1.8,0.9l-0.7,1.8L6.7,84.1z"/>
				<path class="st11" d="M0,84.9c0,0,0.7-0.7,0.9-1.4c0.1-0.2,0.3-0.2,0.4-0.1c0.5,0.8,1.1,1.1,1.4,1.4l-2.1,1.8L0,84.9z"/>
				<path class="st11" d="M8.9,80.5c0-0.6-0.4-1.8-0.8-1.3C7.7,79.7,8.9,80.5,8.9,80.5z"/>
				<path class="st11" d="M10.5,80.4c0.2-0.6,0.3-1.8-0.3-1.5C9.6,79.2,10.5,80.4,10.5,80.4z"/>
				<path class="st11" d="M9.4,79.5c0.2-0.6,0.3-1.8-0.3-1.5S9.4,79.5,9.4,79.5z"/>
				<path class="st11" d="M3.5,81.9c-0.1-0.6-0.5-1.7-0.9-1.2S3.5,81.9,3.5,81.9z"/>
				<path class="st11" d="M3.9,80.9C4,80.3,4,79.1,3.5,79.4C2.9,79.8,3.9,80.9,3.9,80.9z"/>
				<path class="st11" d="M40.1,81.2c-0.9-1-1.4-2-1.7-2.9c-0.8,1-1.6,1.7-2.3,2.3C37,81.3,38.7,81.7,40.1,81.2z"/>
				<path class="st9" d="M33.3,81.5c0,0,2.9-1.1,5.4-5c0.3,2.6,2,5.1,5.5,6.5"/>
				<path class="st11" d="M51.2,83.8c-1.1-1.2-1.8-2.5-2.2-3.6c-1,1.2-1.9,2.2-2.8,2.9C47.3,83.9,49.4,84.4,51.2,83.8z"/>
				<path class="st9" d="M54.9,82.5c2.5,0.2,2.7,3.2,1.4,3.6c-3.2,0.8-6.4-4.9-6.8-8.1c-3.1,4.8-6.7,6.2-6.7,6.2"/>
				<path class="st11" d="M45.7,79.7c-0.8-0.6-1.3-1.3-1.6-1.9c-0.5,0.8-0.9,1.5-1.4,2C43.4,80.1,44.7,80.2,45.7,79.7z"/>
				<path class="st9" d="M40.7,80.7c0,0,2-1.2,3.4-4.3c0.5,1.6,1.6,3,3.7,3.8"/>
				<path class="st11" d="M42.4,79.4c0,0-0.7-0.8-0.8-1.5c0-0.2-0.3-0.2-0.4-0.1c-0.6,0.7-1.2,1-1.5,1.2l1.1,1.6L42.4,79.4z"/>
				<path class="st11" d="M49,78.7c0,0-0.9-0.5-1.3-1.2c-0.1-0.2-0.3-0.1-0.4,0c-0.3,0.9-0.8,1.3-1.1,1.7l1.5,1.2L49,78.7z"/>
				<path class="st11" d="M39.3,76.5c-0.1-0.6-0.1-1.8,0.5-1.4C40.3,75.4,39.3,76.5,39.3,76.5z"/>
				<path class="st11" d="M37.7,76.7c-0.3-0.5-0.7-1.7,0-1.5C38.3,75.4,37.7,76.7,37.7,76.7z"/>
				<path class="st11" d="M38.6,75.6c-0.3-0.5-0.7-1.7,0-1.5C39.2,74.3,38.6,75.6,38.6,75.6z"/>
				<path class="st11" d="M44.9,76.6c0-0.6,0.1-1.8,0.6-1.4S44.9,76.6,44.9,76.6z"/>
				<path class="st11" d="M44.3,75.7c-0.3-0.6-0.5-1.7,0.1-1.5C45,74.4,44.3,75.7,44.3,75.7z"/>
				<path class="st11" d="M39.6,84.7c-0.5-0.4-1.3-1.2-0.6-1.4S39.6,84.7,39.6,84.7z"/>
				<path class="st11" d="M40,84c-0.2-0.6-0.5-1.7,0.2-1.5S40,84,40,84z"/>
				<path class="st11" d="M31.2,80.8c-0.2-0.6-0.5-1.7,0.2-1.5S31.2,80.8,31.2,80.8z"/>
				<path class="st11" d="M14.7,87.3c-0.9-1-1.4-2-1.7-2.9c-0.8,1-1.6,1.7-2.3,2.3C11.6,87.4,13.3,87.8,14.7,87.3z"/>
				<path class="st9" d="M7.9,87.6c0,0,2.9-1.1,5.4-5c0.3,2.6,2,5.1,5.5,6.5"/>
				<path class="st11" d="M25.8,89.8c-1.1-1.2-1.8-2.5-2.2-3.6c-1,1.2-1.9,2.2-2.8,2.9C22,90,24.1,90.5,25.8,89.8z"/>
				<path class="st9" d="M32.6,87.5c1.3,1.3,1.8,5.5-1.6,4.7c-4.6-1.1-6.4-4.9-6.8-8.1c-3.1,4.8-6.7,6.2-6.7,6.2"/>
				<path class="st11" d="M20.4,85.7c-0.8-0.6-1.3-1.3-1.6-1.9c-0.5,0.8-0.9,1.5-1.4,2C18.1,86.2,19.4,86.3,20.4,85.7z"/>
				<path class="st9" d="M15.3,86.8c0,0,2-1.2,3.4-4.3c0.5,1.6,1.6,3,3.7,3.8"/>
				<path class="st11" d="M17,85.5c0,0-0.7-0.8-0.8-1.5c0-0.2-0.3-0.2-0.4-0.1c-0.6,0.7-1.2,1-1.5,1.2l1.1,1.6L17,85.5z"/>
				<path class="st11" d="M23.7,84.7c0,0-0.9-0.5-1.3-1.2c-0.1-0.2-0.3-0.1-0.4,0c-0.3,0.9-0.8,1.3-1.1,1.7l1.5,1.2L23.7,84.7z"/>
				<path class="st11" d="M14,82.5c-0.1-0.6-0.1-1.8,0.5-1.4C15,81.5,14,82.5,14,82.5z"/>
				<path class="st11" d="M12.4,82.8c-0.3-0.5-0.7-1.7,0-1.5C13,81.4,12.4,82.8,12.4,82.8z"/>
				<path class="st11" d="M13.3,81.7c-0.3-0.5-0.7-1.7,0-1.5C13.9,80.3,13.3,81.7,13.3,81.7z"/>
				<path class="st11" d="M19.5,82.6c0-0.6,0.1-1.8,0.6-1.4C20.7,81.7,19.5,82.6,19.5,82.6z"/>
				<path class="st11" d="M18.9,81.7c-0.3-0.6-0.5-1.7,0.1-1.5S18.9,81.7,18.9,81.7z"/>
				<path class="st11" d="M14.3,90.8c-0.5-0.4-1.3-1.2-0.6-1.4C14.3,89.3,14.3,90.8,14.3,90.8z"/>
				<path class="st11" d="M14.6,90.1c-0.2-0.6-0.5-1.7,0.2-1.5C15.4,88.8,14.6,90.1,14.6,90.1z"/>
				<path class="st11" d="M5.9,86.9c-0.2-0.6-0.5-1.7,0.2-1.5S5.9,86.9,5.9,86.9z"/>
				<path class="st11" d="M30.5,82.5c1-0.5,1.5-2.1,1.5-2.1s1.6,1.6,2.9,2.1C33.9,83.2,31.2,82.8,30.5,82.5z"/>
				<path class="st11" d="M43.8,84.7c-1.1-0.2-1.9-1.7-1.9-1.7s-1.1,2-2.3,2.7C40.7,86.1,43.2,85.1,43.8,84.7z"/>
				<path class="st9" d="M31.1,83.8c0,0,3.9,0.7,5.8-1.3c0.5,1.8,3.5,3.5,4.5,5.8"/>
				<path class="st9" d="M34.3,85.6c0,0-4.9-1.8-5.3-4.9c-0.8,2.4-3.8,3.8-5.2,4.3"/>
				<path class="st9" d="M36.6,88.4c6.8,1.5,5.3-3,12.2-0.3"/>
				<path class="st0" d="M4.8,83.7c0.2,0,0.4,0.1,0.5,0.4c0,0.2-0.1,0.4-0.4,0.5s-0.4-0.1-0.5-0.4C4.7,84.2,4.9,84,4.8,83.7z"/>
				<path class="st0" d="M7.9,83.1c0.2,0,0.4,0.1,0.5,0.4C8.4,83.7,8.2,84,8,84c-0.2,0-0.4-0.1-0.5-0.4C7.8,83.6,7.9,83.4,7.9,83.1z
					"/>
				<path class="st0" d="M11,83.2c0.2,0,0.4,0.1,0.5,0.4s-0.1,0.4-0.4,0.5c-0.2,0-0.4-0.1-0.5-0.4C10.9,83.7,11,83.4,11,83.2z"/>
				<path class="st0" d="M12.8,85.6c0.2,0,0.4,0.1,0.5,0.4s-0.1,0.4-0.4,0.5s-0.4-0.1-0.5-0.4C12.6,86.1,12.8,85.9,12.8,85.6z"/>
				<path class="st0" d="M1.3,88.2c0.2,0,0.4,0.1,0.5,0.4c0,0.2-0.1,0.4-0.4,0.5s-0.4-0.1-0.5-0.4C1.1,88.6,1.3,88.4,1.3,88.2z"/>
				<path class="st0" d="M1.2,84.3c0.2,0,0.4,0.1,0.5,0.4c0,0.2-0.1,0.4-0.4,0.5S0.9,85,0.9,84.8C1.1,84.7,1.3,84.5,1.2,84.3z"/>
				<path class="st0" d="M15.5,85c0.2,0,0.4,0.1,0.5,0.4c0,0.2-0.1,0.4-0.4,0.5c-0.2,0-0.4-0.1-0.5-0.4C15.3,85.4,15.5,85.2,15.5,85
					z"/>
				<path class="st0" d="M18.7,84.9c0.2,0,0.4,0.1,0.5,0.4c0,0.2-0.1,0.4-0.4,0.5c-0.2,0-0.4-0.1-0.5-0.4
					C18.6,85.3,18.7,85.1,18.7,84.9z"/>
				<path class="st0" d="M22,84.5c0.2,0,0.4,0.1,0.5,0.4s-0.1,0.4-0.4,0.5c-0.2,0-0.4-0.1-0.5-0.4C21.9,85,22,84.8,22,84.5z"/>
				<path class="st0" d="M23.3,87.8c0.2,0,0.4,0.1,0.5,0.4c0,0.2-0.1,0.4-0.4,0.5c-0.2,0-0.4-0.1-0.5-0.4
					C23.2,88.3,23.4,88.1,23.3,87.8z"/>
				<path class="st0" d="M32.2,81.6c0.2,0,0.4,0.1,0.5,0.4c0,0.2-0.1,0.4-0.4,0.5c-0.2,0-0.4-0.1-0.5-0.4
					C32,82.1,32.2,81.9,32.2,81.6z"/>
				<path class="st0" d="M38,79.8c0.2,0,0.4,0.1,0.5,0.4c0,0.2-0.1,0.4-0.4,0.5s-0.4-0.1-0.5-0.4C37.8,80.2,38,80,38,79.8z"/>
				<path class="st0" d="M40.9,78.9c0.2,0,0.4,0.1,0.5,0.4c0,0.2-0.1,0.4-0.4,0.5c-0.2,0-0.4-0.1-0.5-0.4
					C40.8,79.3,41,79.1,40.9,78.9z"/>
				<path class="st0" d="M44.1,78.8c0.2,0,0.4,0.1,0.5,0.4c0,0.2-0.1,0.4-0.4,0.5c-0.2,0-0.4-0.1-0.5-0.4
					C43.9,79.2,44.1,79,44.1,78.8z"/>
				<path class="st0" d="M41.7,84c0.2,0,0.4,0.1,0.5,0.4c0,0.2-0.1,0.4-0.4,0.5c-0.2,0-0.4-0.1-0.5-0.4C41.6,84.5,41.8,84.3,41.7,84
					z"/>
				<path class="st0" d="M48.5,81.9c0.2,0,0.4,0.1,0.5,0.4c0,0.2-0.1,0.4-0.4,0.5s-0.4-0.1-0.5-0.4C48.4,82.3,48.5,82.1,48.5,81.9z"
					/>
				<path class="st0" d="M47.6,78.6c0.2,0,0.4,0.1,0.5,0.4c0,0.2-0.1,0.4-0.4,0.5c-0.2,0-0.4-0.1-0.5-0.4
					C47.5,79,47.6,78.8,47.6,78.6z"/>
				<path class="st13" d="M53.5,85.4c0,0-3.8-3.6-4.1-7.4"/>
				<polygon class="st1" points="69.2,63.8 56.4,63.8 50.3,70.4 74.6,70.4 				"/>
				<path class="st11" d="M59.5,3.7h6.4c-0.7-1.5-1.9-2.5-3.2-2.5S60.2,2.1,59.5,3.7z"/>
				<rect x="61.2" class="st11" width="2.7" height="1.8"/>
			</g>
			<polygon class="st6" points="57.4,26 56.4,63.8 64.1,63.8 60,26 			"/>
			<line class="st2" x1="73.3" y1="82.3" x2="226.4" y2="82.3"/>
			<path class="st1" d="M159.8,43.9c-0.2-2.2-2.1-4-4.4-4c-2.5,0-4.4,2-4.4,4.4c0,0.3,0,0.5,0.1,0.8v6h8.8L159.8,43.9L159.8,43.9z"
				/>
			<path class="st6" d="M154.1,51.2v-5c0-0.3-0.1-0.5-0.1-0.8c0-2.4,1.9-4.3,4.2-4.4c-0.8-0.6-1.7-1-2.8-1c-2.5,0-4.4,2-4.4,4.4
				c0,0.3,0,0.5,0.1,0.8v6H154.1z"/>
			<path class="st2" d="M157.5,43.9c-0.1-2.2-1-4-2-4c-1.1,0-2,2-2,4.4c0,0.3,0,0.5,0,0.8v6h4.1L157.5,43.9L157.5,43.9z"/>
			<g>
				<rect x="154.6" y="64.3" class="st1" width="10.6" height="5"/>
				<polygon class="st1" points="164.8,61.5 164.8,62.7 154,62.7 154,61.5 152.1,61.5 152.1,67.5 155.7,67.5 155.7,65.2 158,65.2 
					158,67.5 160.3,67.5 160.3,65.2 162.6,65.2 162.6,67.5 166.2,67.5 166.2,61.5 				"/>
				<rect x="152.2" y="67.5" class="st1" width="14.1" height="15"/>
				<g>
					
						<rect x="156.9" y="65.8" transform="matrix(-1.836970e-16 1 -1 -1.836970e-16 230.8736 -87.4908)" class="st2" width="4.5" height="11.8"/>
					<line class="st3" x1="154.5" y1="71" x2="160.4" y2="71"/>
					<line class="st3" x1="154.5" y1="72.5" x2="160.4" y2="72.5"/>
					<circle class="st4" cx="162.2" cy="71" r="0.4"/>
					<circle class="st4" cx="163.7" cy="71" r="0.4"/>
				</g>
				<g>
					
						<rect x="156.9" y="73.2" transform="matrix(-1.836970e-16 1 -1 -1.836970e-16 238.2999 -80.0644)" class="st2" width="4.5" height="11.8"/>
					<line class="st3" x1="154.5" y1="78.4" x2="160.4" y2="78.4"/>
					<line class="st3" x1="154.5" y1="79.9" x2="160.4" y2="79.9"/>
					<circle class="st4" cx="162.2" cy="78.4" r="0.4"/>
					<circle class="st4" cx="163.7" cy="78.4" r="0.4"/>
				</g>
				<circle class="st4" cx="156.9" cy="66.4" r="0.7"/>
				<circle class="st4" cx="161.5" cy="66.4" r="0.7"/>
				<line class="st2" x1="154" y1="61.5" x2="154" y2="65.1"/>
			</g>
			<g>
				<rect x="126.4" y="55.6" class="st1" width="10.6" height="5"/>
				<polygon class="st1" points="136.6,52.8 136.6,54 125.9,54 125.9,52.8 123.9,52.8 123.9,58.8 127.5,58.8 127.5,56.5 129.9,56.5 
					129.9,58.8 132.1,58.8 132.1,56.5 134.4,56.5 134.4,58.8 138,58.8 138,52.8 				"/>
				<rect x="124" y="58.8" class="st1" width="14.1" height="23.2"/>
				<g>
					
						<rect x="128.7" y="57.1" transform="matrix(-1.836970e-16 1 -1 -1.836970e-16 193.9991 -67.993)" class="st2" width="4.5" height="11.8"/>
					<line class="st3" x1="126.3" y1="62.3" x2="132.2" y2="62.3"/>
					<line class="st3" x1="126.3" y1="63.8" x2="132.2" y2="63.8"/>
					<circle class="st4" cx="134.1" cy="62.3" r="0.4"/>
					<circle class="st4" cx="135.5" cy="62.3" r="0.4"/>
				</g>
				<g>
					
						<rect x="128.7" y="64.6" transform="matrix(-1.836970e-16 1 -1 -1.836970e-16 201.4255 -60.5666)" class="st2" width="4.5" height="11.8"/>
					<line class="st3" x1="126.3" y1="69.7" x2="132.2" y2="69.7"/>
					<line class="st3" x1="126.3" y1="71.2" x2="132.2" y2="71.2"/>
					<circle class="st4" cx="134.1" cy="69.7" r="0.4"/>
					<circle class="st4" cx="135.5" cy="69.7" r="0.4"/>
				</g>
				<g>
					
						<rect x="128.7" y="72" transform="matrix(-1.836970e-16 1 -1 -1.836970e-16 208.8519 -53.1402)" class="st2" width="4.5" height="11.8"/>
					<line class="st3" x1="126.3" y1="77.2" x2="132.2" y2="77.2"/>
					<line class="st3" x1="126.3" y1="78.6" x2="132.2" y2="78.6"/>
					<circle class="st4" cx="134.1" cy="77.1" r="0.4"/>
					<circle class="st4" cx="135.5" cy="77.1" r="0.4"/>
				</g>
				<circle class="st4" cx="128.7" cy="57.7" r="0.7"/>
				<circle class="st4" cx="133.3" cy="57.7" r="0.7"/>
				<line class="st2" x1="125.8" y1="52.8" x2="125.8" y2="56.4"/>
			</g>
			<g>
				<rect x="140.5" y="64.3" class="st1" width="10.6" height="5"/>
				<polygon class="st1" points="150.7,61.5 150.7,62.7 139.9,62.7 139.9,61.5 138,61.5 138,67.5 141.6,67.5 141.6,65.2 144,65.2 
					144,67.5 146.2,67.5 146.2,65.2 148.5,65.2 148.5,67.5 152.1,67.5 152.1,61.5 				"/>
				<rect x="138.1" y="67.5" class="st1" width="14.1" height="15"/>
				<g>
					
						<rect x="142.8" y="65.8" transform="matrix(-1.836970e-16 1 -1 -1.836970e-16 216.7805 -73.3977)" class="st2" width="4.5" height="11.8"/>
					<line class="st3" x1="140.4" y1="71" x2="146.3" y2="71"/>
					<line class="st3" x1="140.4" y1="72.5" x2="146.3" y2="72.5"/>
					<circle class="st4" cx="148.1" cy="71" r="0.4"/>
					<circle class="st4" cx="149.6" cy="71" r="0.4"/>
				</g>
				<g>
					
						<rect x="142.8" y="73.2" transform="matrix(-1.836970e-16 1 -1 -1.836970e-16 224.2069 -65.9713)" class="st2" width="4.5" height="11.8"/>
					<line class="st3" x1="140.4" y1="78.4" x2="146.3" y2="78.4"/>
					<line class="st3" x1="140.4" y1="79.9" x2="146.3" y2="79.9"/>
					<circle class="st4" cx="148.1" cy="78.4" r="0.4"/>
					<circle class="st4" cx="149.6" cy="78.4" r="0.4"/>
				</g>
				<circle class="st4" cx="142.8" cy="66.4" r="0.7"/>
				<circle class="st4" cx="147.4" cy="66.4" r="0.7"/>
				<line class="st2" x1="139.9" y1="61.5" x2="139.9" y2="65.1"/>
			</g>
			<g>
				<rect x="150" y="51.5" class="st1" width="10.9" height="31"/>
				<g>
					
						<rect x="153.8" y="59.7" transform="matrix(-1.836970e-16 1 -1 -1.836970e-16 219.6047 -91.2979)" class="st2" width="3.3" height="8.9"/>
					<line class="st3" x1="151.9" y1="63.6" x2="156.3" y2="63.6"/>
					<line class="st3" x1="151.9" y1="64.7" x2="156.3" y2="64.7"/>
					<circle class="st4" cx="157.8" cy="63.6" r="0.3"/>
					<circle class="st4" cx="158.9" cy="63.6" r="0.3"/>
				</g>
				<g>
					
						<rect x="153.8" y="64.9" transform="matrix(-1.836970e-16 1 -1 -1.836970e-16 224.7476 -86.1551)" class="st2" width="3.3" height="8.9"/>
					<line class="st3" x1="151.9" y1="68.7" x2="156.3" y2="68.7"/>
					<line class="st3" x1="151.9" y1="69.9" x2="156.3" y2="69.9"/>
					<circle class="st4" cx="157.8" cy="68.7" r="0.3"/>
					<circle class="st4" cx="158.9" cy="68.7" r="0.3"/>
				</g>
				<g>
					
						<rect x="153.8" y="70" transform="matrix(-1.836970e-16 1 -1 -1.836970e-16 229.8904 -81.0122)" class="st2" width="3.3" height="8.9"/>
					<line class="st3" x1="151.9" y1="73.9" x2="156.3" y2="73.9"/>
					<line class="st3" x1="151.9" y1="75" x2="156.3" y2="75"/>
					<circle class="st4" cx="157.8" cy="73.9" r="0.3"/>
					<circle class="st4" cx="158.9" cy="73.9" r="0.3"/>
				</g>
				<g>
					
						<rect x="153.8" y="74.9" transform="matrix(-1.836970e-16 1 -1 -1.836970e-16 234.8065 -76.0962)" class="st2" width="3.3" height="8.9"/>
					<line class="st3" x1="151.9" y1="78.8" x2="156.3" y2="78.8"/>
					<line class="st3" x1="151.9" y1="79.9" x2="156.3" y2="79.9"/>
					<circle class="st4" cx="157.8" cy="78.8" r="0.3"/>
					<circle class="st4" cx="158.9" cy="78.8" r="0.3"/>
				</g>
			</g>
			<g>
				<line class="st14" x1="211.8" y1="82.3" x2="211.8" y2="78.8"/>
				<path class="st5" d="M216.9,74.2c0,2.8-2.3,5.1-5.1,5.1s-5.1-2.3-5.1-5.1s5.1-9.3,5.1-9.3S216.9,71.3,216.9,74.2z"/>
				<line class="st14" x1="211.8" y1="69.1" x2="211.8" y2="79.4"/>
				<line class="st14" x1="211.8" y1="77.7" x2="214.7" y2="75"/>
				<line class="st14" x1="209.2" y1="73.6" x2="211.8" y2="75.5"/>
			</g>
			<g>
				<line class="st14" x1="177.4" y1="82.3" x2="177.4" y2="78.8"/>
				<path class="st5" d="M182.5,74.2c0,2.8-2.3,5.1-5.1,5.1s-5.1-2.3-5.1-5.1s5.1-9.3,5.1-9.3S182.5,71.3,182.5,74.2z"/>
				<line class="st14" x1="177.4" y1="69.1" x2="177.4" y2="79.4"/>
				<line class="st14" x1="177.4" y1="77.7" x2="180.4" y2="75"/>
				<line class="st14" x1="174.9" y1="73.6" x2="177.4" y2="75.5"/>
			</g>
			<g>
				<line class="st14" x1="105.8" y1="82.3" x2="105.8" y2="77.5"/>
				<path class="st5" d="M112.7,71.2c0,3.8-3.1,6.9-6.9,6.9s-6.9-3.1-6.9-6.9s6.9-12.6,6.9-12.6S112.7,67.4,112.7,71.2z"/>
				<line class="st14" x1="105.8" y1="64.3" x2="105.8" y2="78.3"/>
				<line class="st14" x1="105.8" y1="76" x2="109.8" y2="72.3"/>
				<line class="st14" x1="102.3" y1="70.5" x2="105.8" y2="73"/>
			</g>
			<g>
				<line class="st14" x1="220.3" y1="81.9" x2="220.3" y2="79"/>
				<circle class="st5" cx="220.3" cy="75.8" r="3.1"/>
				<line class="st14" x1="220.3" y1="76.2" x2="220.3" y2="78.1"/>
				<line class="st14" x1="220.3" y1="77.3" x2="221.7" y2="75.9"/>
				<line class="st14" x1="219" y1="75.3" x2="220.3" y2="76.2"/>
			</g>
			<g>
				<line class="st14" x1="98.8" y1="81.9" x2="98.8" y2="79"/>
				<circle class="st5" cx="98.8" cy="75.8" r="3.1"/>
				<line class="st14" x1="98.8" y1="76.2" x2="98.8" y2="78.1"/>
				<line class="st14" x1="98.8" y1="77.3" x2="100.3" y2="75.9"/>
				<line class="st14" x1="97.6" y1="75.3" x2="98.8" y2="76.2"/>
			</g>
			<g>
				<rect x="182.5" y="75.8" class="st1" width="22.2" height="6.3"/>
				<polygon class="st1" points="204.8,75.8 182.5,75.8 184.9,73.2 202.4,73.2 				"/>
				<rect x="184.9" y="54.6" class="st1" width="17" height="18.6"/>
				<line class="st1" x1="184.9" y1="72" x2="201.8" y2="72"/>
				<line class="st1" x1="184.9" y1="70.8" x2="201.8" y2="70.8"/>
				<line class="st1" x1="184.9" y1="69.6" x2="201.8" y2="69.6"/>
				<line class="st1" x1="184.9" y1="68.3" x2="201.8" y2="68.3"/>
				<line class="st1" x1="184.9" y1="67.1" x2="201.8" y2="67.1"/>
				<line class="st1" x1="184.9" y1="65.9" x2="201.8" y2="65.9"/>
				<line class="st1" x1="184.9" y1="64.7" x2="201.8" y2="64.7"/>
				<line class="st1" x1="184.9" y1="63.5" x2="201.8" y2="63.5"/>
				<line class="st1" x1="184.9" y1="62.3" x2="201.8" y2="62.3"/>
				<line class="st1" x1="184.9" y1="61.1" x2="201.8" y2="61.1"/>
				<line class="st1" x1="184.9" y1="59.8" x2="201.8" y2="59.8"/>
				<line class="st1" x1="184.9" y1="58.6" x2="201.8" y2="58.6"/>
				<line class="st1" x1="184.9" y1="57.4" x2="201.8" y2="57.4"/>
				<line class="st1" x1="184.9" y1="56.2" x2="201.8" y2="56.2"/>
				<polygon class="st1" points="201.8,54.5 184.9,54.5 186.3,49 193.3,43.8 200.4,49 				"/>
				<polygon class="st6" points="190.7,82.1 190.7,75.6 192.5,73.2 188.7,54.5 193,48.5 187.8,47.7 186.3,49 184.9,54.5 184.9,73.2 
					182.5,75.8 182.5,82.1 				"/>
			</g>
			<polygon class="st1" points="134,73.3 144.2,65.8 154.4,73.3 			"/>
			<rect x="134" y="73.3" class="st1" width="20.4" height="8.9"/>
			<g>
				
					<rect x="141.1" y="69.3" transform="matrix(-1.836970e-16 1 -1 -1.836970e-16 221.974 -66.4756)" class="st2" width="6.3" height="16.9"/>
				<line class="st3" x1="137.5" y1="76.7" x2="145.9" y2="76.7"/>
				<line class="st3" x1="137.5" y1="78.8" x2="145.9" y2="78.8"/>
				<circle class="st4" cx="148.6" cy="76.7" r="0.6"/>
				<circle class="st4" cx="150.7" cy="76.7" r="0.6"/>
			</g>
			<polygon class="st1" points="107.6,73.3 117.8,65.8 128,73.3 			"/>
			<rect x="107.6" y="73.3" class="st1" width="20.4" height="8.9"/>
			<g>
				
					<rect x="114.6" y="69.3" transform="matrix(-1.836970e-16 1 -1 -1.836970e-16 195.5384 -40.04)" class="st2" width="6.3" height="16.9"/>
				<line class="st3" x1="111" y1="76.7" x2="119.5" y2="76.7"/>
				<line class="st3" x1="111" y1="78.8" x2="119.5" y2="78.8"/>
				<circle class="st4" cx="122.2" cy="76.7" r="0.6"/>
				<circle class="st4" cx="124.3" cy="76.7" r="0.6"/>
			</g>
			<path class="st6" d="M124,70.1c0.5-0.1,8.2,3.7,8.2,3.7v8.4H128v-8.9L124,70.1z"/>
			<path class="st6" d="M150.5,70.1c0.5-0.1,8.2,3.7,8.2,3.7v8.4h-4.2v-8.9L150.5,70.1z"/>
			<g>
				<line class="st14" x1="123.3" y1="82.3" x2="123.3" y2="78.9"/>
				<path class="st5" d="M128.3,74.3c0,2.8-2.2,5-5,5s-5-2.2-5-5s5-9.1,5-9.1S128.3,71.6,128.3,74.3z"/>
				<line class="st14" x1="123.3" y1="69.3" x2="123.3" y2="79.4"/>
				<line class="st14" x1="123.3" y1="77.8" x2="126.2" y2="75.1"/>
				<line class="st14" x1="120.8" y1="73.8" x2="123.3" y2="75.6"/>
			</g>
			<rect x="149.2" y="49.2" class="st1" width="12.6" height="2.3"/>
			<g>
				<circle class="st5" cx="155.5" cy="56.4" r="3.5"/>
			</g>
			<line class="st5" x1="155.5" y1="35.7" x2="155.5" y2="40"/>
			<rect x="150" y="45.6" class="st4" width="1.9" height="3.6"/>
			<rect x="159" y="45.6" class="st4" width="1.9" height="3.6"/>
			<line class="st7" x1="151" y1="46.6" x2="151" y2="50.3"/>
			<line class="st7" x1="160" y1="46.6" x2="160" y2="50.3"/>
			<polygon class="st6" points="160.8,53.4 149.8,52.4 150,51.5 160.8,51.5 			"/>
			<polygon class="st6" points="163.7,82.3 160.8,82.3 160.8,62.7 161.5,62.7 			"/>
		</g>
	</g>
</g>
</svg>
