<?xml version="1.0" encoding="utf-8"?>
<!-- Generator: Adobe Illustrator 22.1.0, SVG Export Plug-In . SVG Version: 6.00 Build 0)  -->
<svg version="1.1" id="Calque_1" xmlns="http://www.w3.org/2000/svg" xmlns:xlink="http://www.w3.org/1999/xlink" x="0px" y="0px"
	 viewBox="0 0 1200 208.8" style="enable-background:new 0 0 1200 208.8;" xml:space="preserve">
<style type="text/css">
	.st0{fill:#FFFFFF;}
</style>
<g>
	<g>
		<path class="st0" d="M327.8,11.6l-37.4,65h-39.3l-46.4,80.5H244l-29.8,51.7H311c24.7-30.2,39.6-68.8,39.6-110.9
			C350.5,66.5,342.2,37,327.8,11.6z"/>
		<path class="st0" d="M136.3,208.8L136.3,208.8L136.3,208.8L136.3,208.8L256.5,0H154.8L85.5,120.4l-62.7-109C8.3,37,0,66.4,0,97.9
			c0,42.1,14.8,80.7,39.6,110.9L136.3,208.8L136.3,208.8z"/>
	</g>
	<g>
		<path class="st0" d="M384.2,66.3c0-42,20.9-62.2,55.2-62.2c34.4,0,55.2,20.2,55.2,62.2c0,41.6-20.9,62-55.2,62
			C405.1,128.3,384.2,107.9,384.2,66.3z M396.6,66.3c0,34.5,15.8,51,42.8,51c27.1,0,42.8-16.5,42.8-51c0-34.7-15.8-51.2-42.8-51.2
			C412.4,15.1,396.6,31.6,396.6,66.3z"/>
		<path class="st0" d="M589.5,9.1c0.5-1.4,2.3-3.9,5.7-3.9c3.4,0,6,2.7,6,6c0,1.1-0.4,2.1-0.5,2.7l-41.4,109.2
			c-0.9,2.5-3.4,4.1-5.7,4.1s-4.8-1.6-5.7-4.1L506.4,13.9c-0.2-0.5-0.5-1.6-0.5-2.7c0-3.4,2.7-6,6-6c3.4,0,5.1,2.5,5.7,3.9
			l35.9,95.3L589.5,9.1z"/>
		<path class="st0" d="M630.7,70.2v51c0,3.2-2.7,6-6,6s-6-2.8-6-6v-110c0-3.2,2.7-6,6-6s6,2.8,6,6v48h61.6v-48c0-3.2,2.7-6,6-6
			c3.4,0,6,2.8,6,6v110c0,3.2-2.7,6-6,6c-3.4,0-6-2.8-6-6v-51H630.7z"/>
	</g>
	<g>
		<path class="st0" d="M395.9,204.9c0,1.6-1.4,3.1-3.1,3.1c-1.7,0-3.1-1.4-3.1-3.1V149c0-1.6,1.4-3.1,3.1-3.1c1.7,0,3.1,1.4,3.1,3.1
			V204.9z"/>
		<path class="st0" d="M443.3,181v24.1c0,1.6-1.3,2.9-2.9,2.9s-2.9-1.3-2.9-2.9v-22.9c0-7.1-2.1-12-10.8-12c-8.9,0-12,5.4-12,12.6
			v22.3c0,1.6-1.3,2.9-2.9,2.9c-1.6,0-2.9-1.3-2.9-2.9v-36.6c0-1.6,1.3-2.9,2.9-2.9c1.6,0,2.9,1.3,2.9,2.9v2.9
			c1.7-3.4,6.1-6.3,12-6.3C440.6,165.1,443.3,173.4,443.3,181z"/>
		<path class="st0" d="M488.4,181v24.1c0,1.6-1.3,2.9-2.9,2.9s-2.9-1.3-2.9-2.9v-22.9c0-7.1-2.1-12-10.8-12c-8.9,0-12,5.4-12,12.6
			v22.3c0,1.6-1.3,2.9-2.9,2.9c-1.6,0-2.9-1.3-2.9-2.9v-36.6c0-1.6,1.3-2.9,2.9-2.9c1.6,0,2.9,1.3,2.9,2.9v2.9
			c1.7-3.4,6.1-6.3,12-6.3C485.7,165.1,488.4,173.4,488.4,181z"/>
		<path class="st0" d="M534.3,186.7c0,14.8-7.2,21.7-18.9,21.7c-11.6,0-18.9-6.9-18.9-21.7c0-14.8,7.3-21.6,18.9-21.6
			C527.1,165.1,534.3,171.9,534.3,186.7z M528.5,186.7c0-11.3-4.8-16.4-13.1-16.4s-13.1,5-13.1,16.4c0,11.5,4.8,16.5,13.1,16.5
			S528.5,198.2,528.5,186.7z"/>
		<path class="st0" d="M553.1,206.2l-15.3-36.4c-0.1-0.3-0.3-0.6-0.3-1.3c0-1.6,1.3-2.9,2.9-2.9s2.3,1,2.7,1.9l12.7,31.1l12.7-31.1
			c0.4-0.9,1.1-1.9,2.7-1.9s2.9,1.3,2.9,2.9c0,0.6-0.2,1-0.3,1.3l-15.3,36.4c-0.5,1.2-1.5,1.8-2.7,1.8
			C554.7,208,553.7,207.3,553.1,206.2z"/>
		<path class="st0" d="M586,175.1c-0.9,1-1.5,1.3-2.3,1.3c-1.4,0-2.6-1.2-2.6-2.6c0-0.6,0.2-1.1,0.4-1.5c2.5-4,7.4-7.1,15-7.1
			c10.4,0,16.2,6.1,16.2,15.3v24.8c0,1.5-1.3,2.8-2.8,2.8c-1.5,0-2.8-1.3-2.8-2.8v-3.2c-2.3,4.2-7.5,6.5-12.9,6.5
			c-9.6,0-15.6-4.6-15.6-12.9c0-7.9,6-12.7,15.8-12.7h12.7v-2.4c0-6.1-4.1-9.9-10.6-9.9C591.7,170.5,588.8,171.9,586,175.1z
			 M607.1,191.7v-3.8h-12.7c-5.9,0-9.9,2.4-9.9,7.7c0,4.7,3.2,7.7,10.3,7.7C601.1,203.2,607.1,199.3,607.1,191.7z"/>
		<path class="st0" d="M625.7,156.9c0-1.5,1.4-2.9,2.9-2.9c1.6,0,2.9,1.4,2.9,2.9v9.5h5.9c1.5,0,2.7,1.2,2.7,2.7
			c0,1.5-1.2,2.7-2.7,2.7h-5.9v24.9c0,3.9,2.2,5.9,5.2,5.9c1.5,0,2.8,1.2,2.8,2.7s-1.3,2.7-2.8,2.7c-7.1,0-11-4.8-11-11.4v-24.9
			h-3.5c-1.5,0-2.7-1.2-2.7-2.7c0-1.5,1.2-2.7,2.7-2.7h3.5V156.9z"/>
		<path class="st0" d="M648,153.7c0-2.6,1.3-3.6,3.4-3.6c2.2,0,3.4,1,3.4,3.6c0,2.2-1.3,3.4-3.4,3.4
			C649.3,157.2,648,155.9,648,153.7z M654.3,205.1c0,1.6-1.3,2.9-2.9,2.9s-2.9-1.3-2.9-2.9v-36.6c0-1.6,1.3-2.9,2.9-2.9
			s2.9,1.3,2.9,2.9V205.1z"/>
		<path class="st0" d="M701.1,186.7c0,14.8-7.2,21.7-18.9,21.7c-11.6,0-18.9-6.9-18.9-21.7c0-14.8,7.3-21.6,18.9-21.6
			C693.9,165.1,701.1,171.9,701.1,186.7z M695.3,186.7c0-11.3-4.8-16.4-13.1-16.4s-13.1,5-13.1,16.4c0,11.5,4.8,16.5,13.1,16.5
			S695.3,198.2,695.3,186.7z"/>
		<path class="st0" d="M744.5,181v24.1c0,1.6-1.3,2.9-2.9,2.9s-2.9-1.3-2.9-2.9v-22.9c0-7.1-2.1-12-10.8-12c-8.9,0-12,5.4-12,12.6
			v22.3c0,1.6-1.3,2.9-2.9,2.9s-2.9-1.3-2.9-2.9v-36.6c0-1.6,1.3-2.9,2.9-2.9s2.9,1.3,2.9,2.9v2.9c1.7-3.4,6.1-6.3,12-6.3
			C741.8,165.1,744.5,173.4,744.5,181z"/>
		<path class="st0" d="M775.5,171.8c-1.5,0-2.7-1.2-2.7-2.7c0-1.5,1.2-2.7,2.7-2.7h3.1V161c0-8.1,4.6-15.5,15.6-15.5
			c1.5,0,2.7,1.2,2.7,2.7c0,1.5-1.2,2.7-2.7,2.7c-7,0-9.8,4.2-9.8,10.1v5.3h8.2c1.5,0,2.7,1.2,2.7,2.7c0,1.5-1.2,2.7-2.7,2.7h-8.2
			v33.3c0,1.6-1.3,2.9-2.9,2.9s-2.9-1.3-2.9-2.9v-33.3H775.5z"/>
		<path class="st0" d="M837.4,186.7c0,14.8-7.2,21.7-18.9,21.7c-11.6,0-18.9-6.9-18.9-21.7c0-14.8,7.3-21.6,18.9-21.6
			C830.2,165.1,837.4,171.9,837.4,186.7z M831.6,186.7c0-11.3-4.8-16.4-13.1-16.4c-8.3,0-13.1,5-13.1,16.4
			c0,11.5,4.8,16.5,13.1,16.5C826.8,203.2,831.6,198.2,831.6,186.7z"/>
		<path class="st0" d="M852.2,172.5c1.8-4.1,6.3-7.2,12.5-7.2c1.5,0,2.8,1.3,2.8,2.8s-1.3,2.8-2.8,2.8c-8.3,0-12.5,5.8-12.5,14.1
			v20.2c0,1.6-1.3,2.9-2.9,2.9c-1.6,0-2.9-1.3-2.9-2.9v-36.6c0-1.6,1.3-2.9,2.9-2.9c1.6,0,2.9,1.3,2.9,2.9V172.5z"/>
		<path class="st0" d="M903.2,204.9c0,1.7-1.4,3.1-3.1,3.1s-3.1-1.4-3.1-3.1v-55.2c0-1.7,1.4-3.1,3.1-3.1H929c1.5,0,2.8,1.3,2.8,2.8
			c0,1.5-1.3,2.8-2.8,2.8h-25.9v22.4H923c1.5,0,2.8,1.3,2.8,2.8c0,1.5-1.3,2.8-2.8,2.8h-19.8V204.9z"/>
		<path class="st0" d="M943.6,172.5c1.8-4.1,6.3-7.2,12.5-7.2c1.5,0,2.8,1.3,2.8,2.8s-1.3,2.8-2.8,2.8c-8.3,0-12.5,5.8-12.5,14.1
			v20.2c0,1.6-1.3,2.9-2.9,2.9s-2.9-1.3-2.9-2.9v-36.6c0-1.6,1.3-2.9,2.9-2.9s2.9,1.3,2.9,2.9V172.5z"/>
		<path class="st0" d="M980.7,165.1c14.4,0,17.2,11.4,17.2,17.6c0,2.6,0,5.8-3.6,5.8H968c0,8.9,5.1,14.7,13.6,14.7
			c5.2,0,8.3-2,10.8-3.9c0.5-0.4,0.9-0.5,1.6-0.5c1.4,0,2.6,1.2,2.6,2.6c0,1-0.5,1.5-1,2.1c-1.4,1.4-6,5-14.1,5
			c-12,0-19.5-6.6-19.5-21.7C962.1,172.8,968.9,165.1,980.7,165.1z M980.7,170.3c-7.8,0-12.2,5-12.7,13.1h24.2
			C992.2,176.9,989.9,170.3,980.7,170.3z"/>
		<path class="st0" d="M1022.6,165.1c14.4,0,17.2,11.4,17.2,17.6c0,2.6,0,5.8-3.6,5.8h-26.3c0,8.9,5.1,14.7,13.6,14.7
			c5.2,0,8.3-2,10.8-3.9c0.5-0.4,0.9-0.5,1.6-0.5c1.4,0,2.6,1.2,2.6,2.6c0,1-0.4,1.5-1,2.1c-1.3,1.4-6,5-14.1,5
			c-12,0-19.5-6.6-19.5-21.7C1004.1,172.8,1010.9,165.1,1022.6,165.1z M1022.6,170.3c-7.8,0-12.2,5-12.7,13.1h24.2
			C1034.2,176.9,1031.9,170.3,1022.6,170.3z"/>
		<path class="st0" d="M1076.4,170.9v-25c0-1.6,1.3-2.9,2.9-2.9s2.9,1.3,2.9,2.9v44.7c0,11.9-7.4,17.7-17.7,17.7
			c-11.6,0-18.5-6.9-18.5-21.7c0-14.8,6.5-21.6,18.1-21.6C1069.9,165.1,1074.3,168.1,1076.4,170.9z M1076.4,178.2
			c0,0-3.4-7.9-11.9-7.9c-8.2,0-12.7,5.3-12.7,16.4c0,11.3,4.4,16.5,12.7,16.5c6.9,0,11.9-4,11.9-12.5V178.2z"/>
		<path class="st0" d="M1129,186.7c0,14.8-7.2,21.7-18.9,21.7c-11.6,0-18.9-6.9-18.9-21.7c0-14.8,7.3-21.6,18.9-21.6
			C1121.8,165.1,1129,171.9,1129,186.7z M1123.2,186.7c0-11.3-4.8-16.4-13.1-16.4c-8.3,0-13.1,5-13.1,16.4
			c0,11.5,4.8,16.5,13.1,16.5C1118.4,203.2,1123.2,198.2,1123.2,186.7z"/>
		<path class="st0" d="M1200,181v24.1c0,1.6-1.3,2.9-2.9,2.9c-1.6,0-2.9-1.3-2.9-2.9v-22.9c0-7.1-2.5-12-11.3-12
			c-7.7,0-11.3,4.1-11.3,10.8v24.1c0,1.6-1.3,2.9-2.9,2.9c-1.6,0-2.9-1.3-2.9-2.9v-22.9c0-7.1-2.2-12-11.1-12
			c-8.4,0-11.1,5-11.1,12.6v22.3c0,1.6-1.3,2.9-2.9,2.9c-1.6,0-2.9-1.3-2.9-2.9v-36.6c0-1.6,1.3-2.9,2.9-2.9c1.6,0,2.9,1.3,2.9,2.9
			v2.9c1.5-3.3,5.9-6.3,11.7-6.3c7.4,0,12.2,2.7,14.3,6.3c2.3-3.5,6.2-6.3,13.2-6.3C1196.8,165.1,1200,173.4,1200,181z"/>
	</g>
</g>
</svg>
