<!-- Generator: Adobe Illustrator 22.1.0, SVG Export Plug-In  -->
<svg version="1.1"
	 xmlns="http://www.w3.org/2000/svg" xmlns:xlink="http://www.w3.org/1999/xlink" xmlns:a="http://ns.adobe.com/AdobeSVGViewerExtensions/3.0/"
	 x="0px" y="0px" width="24.9px" height="10.3px" viewBox="0 0 24.9 10.3" style="enable-background:new 0 0 24.9 10.3;"
	 xml:space="preserve">
<style type="text/css">
	.st0{fill:#DEEBEE;}
</style>
<defs>
</defs>
<path class="st0" d="M2.5,5.3H8c0.2-1.8,1.7-3.1,3.6-3.1c0.6,0,1.1,0.1,1.6,0.4C13.6,1.1,15,0,16.6,0c2,0,3.6,1.6,3.6,3.6
	c0,0.6-0.2,1.2-0.4,1.7h2.6c1.4,0,2.5,1.1,2.5,2.5c0,1.4-1.1,2.5-2.5,2.5H2.5C1.1,10.3,0,9.2,0,7.8C0,6.4,1.1,5.3,2.5,5.3z"/>
</svg>
